#!OML:ASF F:\VICON\USERDATA\INSTALL\Justin_Nancy\Justin_Nancy.ASF
:FULLY-SPECIFIED
:DEGREES
391
root -0.0751008 17.3368 13.5297 53.9517 84.109 49.164
lowerback 9.48278 0.457982 -3.57296
upperback 0.278294 0.284045 0.866233
thorax -5.05594 0.243418 2.87895
lowerneck -17.7071 -3.41599 -8.73913
upperneck 21.6421 -2.77559 2.81441
head 9.99799 -1.61462 2.06972
rclavicle -5.06901e-015 1.98785e-014
rhumerus -29.3082 -14.0849 -80.5262
rradius 33.1838
rwrist 4.26329
rhand -16.0135 12.7288
rfingers 7.12502
rthumb 10.1871 -17.0045
lclavicle -5.06901e-015 1.98785e-014
lhumerus -29.7909 14.9429 83.6457
lradius 28.6672
lwrist -8.28688
lhand -17.177 22.6764
lfingers 7.12502
lthumb 9.06456 52.4616
rfemur -33.734 -7.41521 14.4553
rtibia 58.8928
rfoot -12.1755 -4.54589
rtoes 4.84947
lfemur -14.0886 -0.844525 -32.0889
ltibia 27.0339
lfoot -15.1343 3.36845
ltoes 12.1173
392
root 0.0390724 17.2375 13.5463 56.8776 84.5657 51.8054
lowerback 9.35032 0.166409 -2.94299
upperback 0.192703 -0.038154 0.779742
thorax -5.04598 0.0686193 2.47621
lowerneck -17.7344 -3.25731 -8.56482
upperneck 21.4936 -2.61677 2.85249
head 9.93591 -1.52175 2.0753
rclavicle 7.35503e-015 -1.59028e-015
rhumerus -29.3587 -14.9062 -80.4051
rradius 32.7982
rwrist 6.39647
rhand -15.3541 12.6171
rfingers 7.12502
rthumb 10.8232 -17.084
lclavicle 7.35503e-015 -1.59028e-015
lhumerus -29.3773 14.2809 83.8444
lradius 29.44
lwrist -7.35594
lhand -17.1428 22.383
lfingers 7.12502
lthumb 9.09755 52.1668
rfemur -34.9069 -6.98795 14.4321
rtibia 57.2862
rfoot -14.3909 -4.19554
rtoes 22.8127
lfemur -14.1425 2.5215 -32.732
ltibia 27.1891
lfoot -15.1658 5.20751
ltoes -17.5592
393
root 0.1627 17.3011 13.5299 59.4177 85.0841 54.0029
lowerback 9.16047 -0.0935855 -2.24733
upperback 0.0869652 -0.305889 0.808021
thorax -5.03531 -0.0797716 2.14823
lowerneck -17.7465 -3.18619 -8.71427
upperneck 21.3158 -2.51984 3.01953
head 9.87266 -1.46881 2.17073
rclavicle 2.98177e-016 5.56597e-015
rhumerus -29.4652 -15.058 -80.2481
rradius 32.5167
rwrist 7.56207
rhand -15.5308 12.0698
rfingers 7.12502
rthumb 10.6528 -17.6401
lclavicle 2.98177e-016 5.56597e-015
lhumerus -29.0125 13.4629 84.2591
lradius 30.2795
lwrist -6.30945
lhand -17.5187 22.4097
lfingers 7.12502
lthumb 8.7348 52.2089
rfemur -35.4355 -7.26483 14.8786
rtibia 54.7932
rfoot -12.1097 -5.42105
rtoes -0.815243
lfemur -14.1473 -2.59744 -31.5138
ltibia 27.5155
lfoot -15.8687 4.21221
ltoes 13.5049
394
root 0.314943 17.3183 13.6189 54.2246 84.9798 49.3031
lowerback 9.38961 0.149076 -3.00828
upperback 0.280846 -0.0535723 1.03168
thorax -4.97458 0.0639865 2.77864
lowerneck -17.6317 -3.23916 -8.93283
upperneck 21.1355 -2.56822 3.11705
head 9.79568 -1.49643 2.23333
rclavicle -2.68359e-015 -1.74931e-014
rhumerus -29.6261 -15.1282 -79.9814
rradius 32.2207
rwrist 8.25637
rhand -15.5343 11.4421
rfingers 7.12502
rthumb 10.6494 -18.268
lclavicle -2.68359e-015 -1.74931e-014
lhumerus -28.7175 11.9472 84.9451
lradius 31.1532
lwrist -4.90224
lhand -18.3911 22.8821
lfingers 7.12502
lthumb 7.89286 52.7148
rfemur -35.0659 -5.84923 14.8064
rtibia 52.512
rfoot -12.1986 -5.05913
rtoes 0.144564
lfemur -12.9837 -1.61034 -31.1098
ltibia 27.5785
lfoot -16.7211 4.4004
ltoes 11.7954
395
root 0.447685 17.3126 13.6557 58.7329 84.9675 53.792
lowerback 9.38304 0.164958 -3.25191
upperback 0.250388 -0.0641896 0.940906
thorax -5.00215 0.0640606 2.82289
lowerneck -17.5857 -3.3878 -9.14609
upperneck 21.1649 -2.76573 3.31218
head 9.81746 -1.58307 2.31058
rclavicle 2.5842e-015 -1.74931e-014
rhumerus -29.9125 -16.2027 -79.3496
rradius 31.8796
rwrist 9.95095
rhand -14.0033 11.5989
rfingers 7.12502
rthumb 12.1259 -18.0297
lclavicle 2.5842e-015 -1.74931e-014
lhumerus -28.4425 10.5296 85.5318
lradius 31.9968
lwrist -3.76721
lhand -18.5701 22.9989
lfingers 7.12502
lthumb 7.72008 52.8379
rfemur -35.3206 -6.25534 14.3834
rtibia 49.9119
rfoot -11.8554 -4.11549
rtoes 5.45053
lfemur -12.5822 -1.2422 -31.3211
ltibia 27.7355
lfoot -16.9663 3.69197
ltoes 11.5114
396
root 0.578012 17.3015 13.6839 62.7692 84.9906 57.6788
lowerback 9.26503 0.0831396 -3.44915
upperback 0.23209 -0.191551 0.930589
thorax -4.94532 0.00461398 2.93996
lowerneck -17.772 -3.46897 -9.10836
upperneck 21.2207 -2.86708 3.28889
head 9.87795 -1.62986 2.28094
rclavicle -6.95746e-015 -1.66979e-014
rhumerus -29.9278 -16.9221 -78.7911
rradius 31.4262
rwrist 11.6034
rhand -12.0809 11.9324
rfingers 7.12502
rthumb 13.979 -17.5776
lclavicle -6.95746e-015 -1.66979e-014
lhumerus -28.1065 10.1577 85.8357
lradius 32.7144
lwrist -3.67091
lhand -19.2904 23.3134
lfingers 7.12502
lthumb 7.02487 53.1768
rfemur -35.7189 -6.37132 14.07
rtibia 47.3882
rfoot -11.3452 -3.57326
rtoes 5.87543
lfemur -12.0656 -0.819 -31.426
ltibia 27.2813
lfoot -16.6935 1.02863
ltoes 15.7846
397
root 0.714248 17.3057 13.7069 66.0837 85.0128 60.8529
lowerback 9.11422 -0.0993333 -3.65721
upperback 0.196292 -0.450202 0.970488
thorax -4.87662 -0.119068 3.13225
lowerneck -17.939 -3.38105 -8.96715
upperneck 21.3215 -2.73657 3.15724
head 9.93157 -1.57382 2.22913
rclavicle 0 -1.59028e-014
rhumerus -29.9198 -15.9381 -79.0709
rradius 31.1137
rwrist 9.80969
rhand -13.2342 11.648
rfingers 7.12502
rthumb 12.8674 -17.9354
lclavicle 0 -1.59028e-014
lhumerus -27.8995 9.96213 85.9405
lradius 33.5058
lwrist -3.4876
lhand -19.7933 23.8057
lfingers 7.12502
lthumb 6.53934 53.6847
rfemur -35.8995 -5.58276 13.6174
rtibia 44.6937
rfoot -10.7451 -3.66167
rtoes 4.63148
lfemur -11.5494 -0.958841 -31.4444
ltibia 26.909
lfoot -17.1442 1.7866
ltoes 13.5757
